<?xml version="1.0" encoding="UTF-8"?>
<svg id="Layer_2" data-name="Layer 2" xmlns="http://www.w3.org/2000/svg" viewBox="0 0 129.68 89.89">
  <defs>
    <style>
      .cls-1 {
        fill: #4d4d4d;
      }
    </style>
  </defs>
  <g id="Layer_1-2" data-name="Layer 1">
    <g>
      <path class="cls-1" d="M128.18,14.3v17.67c-6.67.08-15.09.71-20.72,3.19-6.35,2.81-8.28,3.8-11.28,11.8-1.11,2.95-1.33,6.86-1,10,.33,3.13,4.13,8.55,1,9-1.41.21-8.77-3.26-10-4-5-3-6-4-10-6-2.4-1.2-5.82-2.17-8.45-1.64-3,.6-6.02,4.99-7.55,7.64-3.29,5.7-3,8-8,15-9-5-11.03-10.45-18.73-17.71-1.28-1.2-2.64-2.44-4.35-2.81-3.39-.74-6.39,2.18-8.54,4.9-6.57,8.3-12.1,17.42-16.46,27.06-4.42-11.34-2.92-24.5,2.2-35.58,5.34-11.6,14.29-21.19,24.03-29.44C43.11,12.56,58.15,3.45,74.81,1.73c18.39-1.91,36.33,5.33,53.37,12.57Z"/>
      <path d="M126.68,14.3v17.67l1.5-1.5c-8.93.12-18.18.96-26.02,5.6-2.77,1.63-4.61,4.03-5.95,6.92-2.06,4.44-3.07,9.07-2.53,13.97.2,1.78.94,3.41,1.56,5.07.26.71.49,1.42.66,2.16.02.08.12.5.08.33-.04-.14.25.06-.05-.07-.21-.09.38.07-.1-.03-.12-.02-.23-.06-.35-.09-.27-.07-.55-.16-.82-.25-.84-.28-1.66-.61-2.48-.95-1.42-.6-2.82-1.24-4.2-1.93-3.16-1.59-5.98-3.81-9.08-5.52-3.71-2.05-8.88-4.33-13.05-2.28-2.14,1.05-3.77,3.07-5.14,4.96s-2.52,3.95-3.52,6.06c-.78,1.67-1.46,3.39-2.26,5.05-1.14,2.37-2.54,4.58-4.05,6.71l2.05-.54c-3.91-2.2-7.15-5.04-10.1-8.4s-5.89-7.05-9.38-10.04c-1.88-1.61-4.06-2.73-6.59-2.3-2.29.39-4.24,1.91-5.81,3.54-1.78,1.86-3.3,4-4.81,6.08-1.6,2.2-3.14,4.45-4.6,6.74-3.33,5.23-6.27,10.7-8.84,16.34l2.74.36c-4.13-10.79-2.97-22.98,1.61-33.44,4.47-10.23,11.8-18.87,19.96-26.36s17.29-14.29,27.38-19.06,21.71-7.06,33.21-5.86c13.86,1.45,27,6.91,39.71,12.31.75.32,1.6.22,2.05-.54.38-.63.21-1.74-.54-2.05-11.85-5.03-23.93-10.07-36.72-12.12-12.09-1.94-24.12-.69-35.45,4-10.62,4.39-20.13,11.05-28.78,18.54S11.16,39.75,5.92,50.17C-.03,61.99-2.17,76.21,2.65,88.8c.41,1.06,2.15,1.65,2.74.36,4.26-9.37,9.58-18.3,15.94-26.4,1.36-1.72,2.88-3.62,4.93-4.53,2.29-1.03,4.16.28,5.82,1.81,3.13,2.89,5.82,6.16,8.62,9.35,3.11,3.54,6.59,6.55,10.71,8.87.75.42,1.58.13,2.05-.54,2.35-3.31,4.09-6.77,5.72-10.47s3.51-7.32,6.42-10.01c1.71-1.58,3.57-1.81,5.82-1.35s4.15,1.38,6.08,2.46c3.05,1.7,5.82,3.88,8.94,5.45,2.66,1.34,5.55,2.85,8.47,3.5,1.32.3,2.8.1,3.56-1.18s.3-3-.16-4.34c-.55-1.59-1.39-3.16-1.65-4.83-.37-2.36-.19-5.01.3-7.34.69-3.27,2.25-7.18,4.73-9.53,1.12-1.06,2.51-1.78,3.89-2.45,2.03-.98,4.09-1.84,6.28-2.41,5.3-1.39,10.85-1.7,16.31-1.77.81-.01,1.5-.68,1.5-1.5V14.3c0-1.93-3-1.93-3,0Z"/>
    </g>
  </g>
</svg>