<svg id="Layer_1" data-name="Layer 1" xmlns="http://www.w3.org/2000/svg" viewBox="0 0 1000.69 704.18"><defs><style>.cls-1{fill:#5d5c61;stroke:#000;stroke-miterlimit:10;}</style></defs><path class="cls-1" d="M979.64,855.09c-31,15.51-93,31-172.48,31-184.1,0-322.66-116.28-322.66-330.42,0-204.45,138.56-343,341.07-343,81.4,0,132.75,17.44,155,29.07l-20.35,68.79c-32-15.5-77.52-27.13-131.78-27.13-153.1,0-254.84,97.87-254.84,269.37,0,159.89,92.05,262.59,251,262.59,51.36,0,103.68-10.65,137.6-27.13Z" transform="translate(-484 -212.17)"/><path class="cls-1" d="M686,635.62q-15.56-8.89-24-29.13T653.59,553q0-48.69,18.48-70.5t54.2-21.8a114.19,114.19,0,0,1,32.34,4.6v16.6a96.25,96.25,0,0,0-15.69-3.64,116.3,116.3,0,0,0-16.17-1.09q-18,0-29.73,7t-17.75,23.62q-6.06,16.59-6,44.69,0,28.71,6,45.3t17.57,23.44q11.5,6.84,29.19,6.84a81.3,81.3,0,0,0,15.62-1.51,128.25,128.25,0,0,0,17-4.67v16.6a94.86,94.86,0,0,1-16.23,4.42,99.1,99.1,0,0,1-18,1.64Q701.56,644.53,686,635.62Z" transform="translate(-484 -212.17)"/><path class="cls-1" d="M783.2,634.72q-9.45-9.83-9.45-32.35V510.81h18.41v90.84q0,14.05,5.63,20t15.81,6a34.44,34.44,0,0,0,15.92-4.24,31.17,31.17,0,0,0,13-13V510.81H861V642.22H845.45L844,627.93h-1.21a45.68,45.68,0,0,1-15.51,12.42,42.41,42.41,0,0,1-18.53,4.18Q792.64,644.53,783.2,634.72Z" transform="translate(-484 -212.17)"/><path class="cls-1" d="M891.72,510.81h15.39l1.57,17.92h1.21a37.24,37.24,0,0,1,33.19-19.26,60.52,60.52,0,0,1,7.39.61v17.56a56,56,0,0,0-8.48-.48,36.08,36.08,0,0,0-18.35,5.08,34.61,34.61,0,0,0-13.51,14v95.93H891.72Z" transform="translate(-484 -212.17)"/><path class="cls-1" d="M967.24,479.07a11.77,11.77,0,0,1-3.46-9,12,12,0,0,1,3.46-9q3.45-3.33,9.63-3.34t9.56,3.34a12.06,12.06,0,0,1,3.4,9q0,5.68-3.4,9t-9.56,3.27Q970.69,482.34,967.24,479.07Zm.42,163.15V510.81h18.41V642.22Z" transform="translate(-484 -212.17)"/><path class="cls-1" d="M1010.54,576.7q0-35.49,12.53-51.72t36.16-16.23q23.25,0,35.91,16.35t12.66,51.48q0,35.37-12.54,51.65t-36,16.3Q1010.54,644.53,1010.54,576.7Zm64.8,48.08q6.42-4.72,9.93-16.23t3.51-31.49q0-20.35-3.51-32.1t-10-16.47q-6.49-4.72-16-4.72t-16.17,4.66q-6.48,4.67-10,16.23t-3.51,31.55q0,20.35,3.51,32.1t10,16.47q6.48,4.72,16.17,4.73T1075.34,624.78Z" transform="translate(-484 -212.17)"/><path class="cls-1" d="M1140.62,634.72q-9.45-9.83-9.45-32.35V510.81h18.41v90.84q0,14.05,5.63,20t15.81,6a34.45,34.45,0,0,0,15.93-4.24,31.2,31.2,0,0,0,13-13V510.81h18.41V642.22h-15.51l-1.45-14.29h-1.21a45.65,45.65,0,0,1-15.5,12.42,42.49,42.49,0,0,1-18.54,4.18Q1150.06,644.53,1140.62,634.72Z" transform="translate(-484 -212.17)"/><path class="cls-1" d="M1244.18,639.56V623.94A98.65,98.65,0,0,0,1274,629q13.69,0,20.84-5.75t7.14-16.41q0-9.09-4.36-14t-13.44-7.45l-13.33-3.51q-15.49-4.24-22.46-12.9t-7-22.72a35.93,35.93,0,0,1,5.33-19.5,35.47,35.47,0,0,1,15.69-13.26q10.35-4.78,24.89-4.78a111.56,111.56,0,0,1,25.55,2.9V527.4a111.29,111.29,0,0,0-12.35-2.3,99.82,99.82,0,0,0-12.48-.73q-14.77,0-22,6.06a19.39,19.39,0,0,0-7.27,15.62c0,5.5,1.39,9.83,4.18,13s7.13,5.64,13,7.33l13.32,3.64q16.23,4.35,23.14,13.08t6.9,23.13q0,11.87-5.39,20.53a34.1,34.1,0,0,1-15.5,13.2q-10.11,4.54-24.16,4.55A90.2,90.2,0,0,1,1244.18,639.56Z" transform="translate(-484 -212.17)"/><path class="cls-1" d="M1341,642.22V446.49h18.42V642.22Z" transform="translate(-484 -212.17)"/><path class="cls-1" d="M1465.11,510.81H1484l-59.23,184.71h-18.41l17.2-53.3h-6.06l-42.15-131.41h19.5l34.77,114.82Z" transform="translate(-484 -212.17)"/><path class="cls-1" d="M1017.25,797q0-35.47,12.53-51.71t36.16-16.24q23.25,0,35.91,16.35t12.66,51.48q0,35.37-12.54,51.66t-36,16.29Q1017.25,864.85,1017.25,797Zm64.8,48.09q6.42-4.73,9.93-16.23t3.51-31.49q0-20.35-3.51-32.1t-10-16.47q-6.49-4.73-16-4.72t-16.17,4.66q-6.48,4.66-10,16.23t-3.51,31.55q0,20.36,3.51,32.1t10,16.47q6.48,4.73,16.17,4.72T1082.05,845.11Z" transform="translate(-484 -212.17)"/><path class="cls-1" d="M1139,731.13h15.38l1.58,17.93h1.21a37.24,37.24,0,0,1,33.19-19.26,60.24,60.24,0,0,1,7.38.61V748a55.79,55.79,0,0,0-8.47-.48,36.08,36.08,0,0,0-18.35,5.08,34.55,34.55,0,0,0-13.51,14v95.93H1139Z" transform="translate(-484 -212.17)"/><path class="cls-1" d="M1293.4,731.13h18.89l-59.23,184.72h-18.41l17.2-53.3h-6l-42.15-131.42h19.5L1257.91,846Z" transform="translate(-484 -212.17)"/></svg>