<?xml version="1.0" encoding="UTF-8"?>
<svg id="Layer_2" data-name="Layer 2" xmlns="http://www.w3.org/2000/svg" viewBox="0 0 207.28 207.28">
  <defs>
    <style>
      .cls-1, .cls-2 {
        fill: none;
        stroke: #000;
        stroke-miterlimit: 10;
      }

      .cls-2 {
        stroke-width: 7px;
      }
    </style>
  </defs>
  <g id="net">
    <ellipse class="cls-2" cx="56.69" cy="56.69" rx="27.5" ry="70" transform="translate(-23.48 56.69) rotate(-45)"/>
    <line class="cls-2" x1="105.69" y1="106.19" x2="194.19" y2="194.69"/>
    <path class="cls-1" d="M7.69,7.19c0,68.54,11.63,124,26,124"/>
    <path class="cls-1" d="M105.69,106.19c0,13.82-32.2,25-72,25"/>
    <path class="cls-1" d="M75.69,37.19c0,51.96-18.79,94-42,94"/>
    <path class="cls-1" d="M20.69,56.19c0,41.46,5.81,75,13,75"/>
    <path class="cls-1" d="M40.69,10.19c0,66.88-3.13,121-7,121"/>
    <path class="cls-1" d="M105.69,76.19c0,30.4-32.2,55-72,55"/>
    <path class="cls-1" d="M7.69,35.19c0,53.06,11.63,96,26,96"/>
    <path class="cls-1" d="M26.69,5.19c0,69.64,3.13,126,7,126"/>
    <path class="cls-1" d="M61.69,24.19c0,59.14-12.52,107-28,107"/>
    <path class="cls-1" d="M94.69,60.19c0,39.24-27.28,71-61,71"/>
    <path class="cls-1" d="M87.69,50.19c0,44.77-24.15,81-54,81"/>
    <path class="cls-1" d="M16.69,3.19c0,70.75,7.6,128,17,128"/>
    <path class="cls-1" d="M54.69,19.19c0,61.91-9.39,112-21,112"/>
    <path class="cls-1" d="M3.69,19.19c0,61.91,13.42,112,30,112"/>
    <path class="cls-1" d="M14.69,48.19c0,45.88,8.5,83,19,83"/>
    <path class="cls-1" d="M45.69,84.19c0,25.98-5.37,47-12,47"/>
    <path class="cls-1" d="M37.69,76.19c0,30.4-1.79,55-4,55"/>
    <path class="cls-1" d="M109.69,95.19c0,19.9-33.99,36-76,36"/>
    <path class="cls-1" d="M98.69,109.19c0,12.16-29.07,22-65,22"/>
    <path class="cls-1" d="M3.69,19.19c1.62-1.39,3.85-2.98,6.73-4.24,6.9-3.02,13.31-2.3,16.27-1.76,4.04.87,9.8,2.54,16,6,6.1,3.4,9.7,6.91,15,12,23.28,22.39,21.32,19.87,25,24,9.26,10.39,14.11,15.84,18,25,.72,1.7,4.63,9.97,5,21,.27,8.21-1.61,10.78-3,12-2.7,2.38-6.51,2.23-9,2-14.93-1.39-28.62-10.11-30-11-11.44-7.43-20.1-13.05-31-24-13.62-13.69-26.31-26.45-29-46-.85-6.15-.48-11.39,0-15Z"/>
    <path class="cls-1" d="M16.69,27.19c8.27-2.17,15.59,2.02,24,7,4.57,2.71,8.9,5.82,20,16,15.4,14.11,22.99,22.71,25,25,7.27,8.3,13.81,16.81,15,26,.24,1.9.69,5.68-1,10-.64,1.63-2.09,5.56-6,8-2.07,1.29-4.32,1.85-7,2-9.08.51-17.19-3.97-19-5-22.48-12.76-33.77-19.05-40-25-7.38-7.05-16.71-16.16-22-31-2.49-6.98-5.58-16.08-1-24,3.91-6.76,11.15-8.78,12-9Z"/>
    <path class="cls-1" d="M39.69,61.19c8.51,3.15,15.97,8.73,19,11,.01,0,.04.03.05.04,1.09.82,14.51,11.02,24.95,27.96,2.32,3.76,4.5,7.88,4,13-.13,1.32-.63,6.39-5,10-2.78,2.3-6.06,2.88-11,3-12.3.3-21.94-2.66-23-3-10.02-3.17-21.07-6.66-30-17-3.13-3.62-7.53-8.84-9-17-1.87-10.39,2.14-18.76,4-22,1.93-3.37,3.58-6.24,7-8,5.7-2.93,12.01-.59,19,2Z"/>
    <ellipse class="cls-2" cx="162.77" cy="162.77" rx="5.3" ry="57.76" transform="translate(-67.42 162.77) rotate(-45)"/>
  </g>
</svg>