<?xml version="1.0" encoding="UTF-8"?>
<svg id="Layer_2" data-name="Layer 2" xmlns="http://www.w3.org/2000/svg" viewBox="0 0 806.18 821.5">
  <defs>
    <style>
      .cls-1, .cls-2, .cls-3 {
        fill: #fff;
      }

      .cls-1, .cls-4 {
        fill-rule: evenodd;
      }

      .cls-2, .cls-5, .cls-6, .cls-7, .cls-8, .cls-9 {
        stroke-miterlimit: 10;
      }

      .cls-2, .cls-6, .cls-7, .cls-8 {
        stroke: #18181b;
      }

      .cls-2, .cls-8 {
        stroke-width: 2px;
      }

      .cls-10, .cls-9 {
        fill: #a39e7f;
      }

      .cls-5, .cls-6, .cls-7 {
        stroke-width: 3px;
      }

      .cls-5, .cls-7, .cls-8 {
        fill: none;
      }

      .cls-5, .cls-9 {
        stroke: #fff;
      }

      .cls-6 {
        fill: #d3d3d3;
      }

      .cls-11 {
        fill: #e2dcaf;
      }

      .cls-9 {
        stroke-width: 4px;
      }

      .cls-12 {
        fill: #18181b;
      }
    </style>
  </defs>
  <g id="Moon">
    <g>
      <path class="cls-11" d="M2.31,819.5c5.44-36.62,17.73-72.01,36.53-105.24,18.71-33.06,43.45-63.26,73.52-89.76,30.05-26.48,64.64-48.56,102.82-65.65,39.09-17.5,81.04-29.33,124.68-35.16,10.91-1.47,22.11-2.56,33.29-3.26,2.62-.17,5.47-.33,8.72-.47h.22c1.52-.08,3.03-.14,4.56-.19,5.33-.19,10.86-.28,16.44-.28,3.58,0,7.21.04,10.78.12.88.02,1.76.04,2.66.07,15.4.42,30.83,1.6,45.89,3.5.65.07,1.28.15,1.9.24,70.09,9.06,136.41,33.89,191.8,71.79,25,17.09,47.61,36.72,67.19,58.33,43.78,48.31,71.61,105.65,80.57,165.96H2.31Z"/>
      <path class="cls-3" d="M403.09,521.5c3.57,0,7.18.04,10.73.12.88.02,1.75.04,2.66.07,15.32.42,30.69,1.59,45.68,3.48h.03s.03,0,.03,0c.6.07,1.21.14,1.85.23,69.76,9.02,135.77,33.73,190.91,71.46,24.87,17,47.36,36.52,66.83,58.02,42.96,47.41,70.47,103.54,79.73,162.61H4.64c5.57-35.56,17.65-69.94,35.94-102.26,18.6-32.87,43.2-62.89,73.11-89.25,29.9-26.34,64.32-48.32,102.31-65.32,38.92-17.42,80.68-29.19,124.13-35,10.85-1.46,22-2.55,33.16-3.24,2.59-.17,5.43-.32,8.68-.47,1.58-.07,3.17-.14,4.77-.19,5.3-.18,10.81-.28,16.36-.28M403.09,517.5c-5.53,0-11.03.09-16.5.28-1.61.05-3.21.12-4.81.19-2.93.13-5.85.28-8.76.47-11.28.7-22.43,1.79-33.43,3.27C161.33,545.53,21.58,668.06,0,821.5h806.18c-8.89-63.27-37.89-121.29-81.4-169.3-19.7-21.75-42.39-41.45-67.54-58.64-54.44-37.25-120.42-62.78-192.65-72.12-.64-.09-1.29-.17-1.93-.24-15.1-1.9-30.48-3.08-46.07-3.51-.9-.03-1.79-.05-2.68-.07-3.6-.08-7.2-.12-10.82-.12h0Z"/>
    </g>
    <g>
      <path class="cls-10" d="M105.84,819.5c-14.67-11.95-22.75-27.2-22.75-43,0-36.39,42.17-66,94-66s94,29.61,94,66c0,15.8-8.07,31.04-22.75,43H105.84Z"/>
      <path class="cls-3" d="M177.09,712.5c50.73,0,92,28.71,92,64,0,14.99-7.61,29.5-21.46,41H106.55c-13.85-11.5-21.46-26.01-21.46-41,0-35.29,41.27-64,92-64M177.09,708.5c-53.02,0-96,30.44-96,68,0,17.26,9.07,33.02,24.04,45h143.92c14.97-11.98,24.04-27.74,24.04-45,0-37.56-42.98-68-96-68h0Z"/>
    </g>
    <g>
      <path class="cls-10" d="M660.59,684.5c-35.57,0-64.5-19.96-64.5-44.5s26.55-43,60.57-44.42c24.43,16.76,46.56,35.94,65.8,57.03-8.09,18.83-33.28,31.89-61.86,31.89Z"/>
      <path class="cls-3" d="M656.08,597.61c23.71,16.32,45.23,34.94,64.01,55.38-8.31,17.49-32.3,29.51-59.5,29.51-34.46,0-62.5-19.07-62.5-42.5,0-10.7,5.95-20.96,16.75-28.87,10.88-7.97,25.48-12.75,41.24-13.52M657.24,593.56c-35.17,1.22-63.15,21.55-63.15,46.44s29.77,46.5,66.5,46.5c30.69,0,56.52-14.54,64.19-34.3-19.7-21.75-42.39-41.45-67.54-58.64h0Z"/>
    </g>
    <ellipse class="cls-9" cx="481.09" cy="769" rx="54" ry="38.5"/>
    <ellipse class="cls-9" cx="315.09" cy="560.5" rx="31" ry="20"/>
  </g>
  <g id="Astronaught">
    <g>
      <path class="cls-3" d="M259.05,426.01c-1.49,0-2.95-.3-4.33-.9l-25.71-11.1c-5.57-2.41-8.14-8.89-5.74-14.46l77.72-179.93c1.74-4.03,5.72-6.63,10.13-6.63,1.49,0,2.95.3,4.33.9l25.71,11.1c5.57,2.41,8.14,8.89,5.74,14.46l-77.72,179.93c-1.74,4.03-5.72,6.63-10.13,6.63h0Z"/>
      <path class="cls-12" d="M311.13,213.99c1.36,0,2.68.27,3.93.81l25.7,11.1c5.06,2.19,7.4,8.08,5.21,13.15l-77.72,179.93c-1.58,3.66-5.2,6.03-9.21,6.03-1.36,0-2.68-.27-3.93-.81l-25.7-11.1c-2.44-1.05-4.33-3.01-5.32-5.5-.99-2.49-.95-5.21.1-7.65l77.72-179.93c1.58-3.66,5.2-6.03,9.21-6.03M311.13,211.99c-4.65,0-9.1,2.71-11.05,7.24l-77.72,179.93c-2.62,6.06.2,13.16,6.26,15.77l25.7,11.1c1.54.66,3.14.98,4.72.98,4.65,0,9.1-2.72,11.05-7.24l77.72-179.93c2.62-6.06-.2-13.16-6.26-15.77l-25.7-11.1c-1.54-.66-3.14-.98-4.72-.98h0Z"/>
    </g>
    <g>
      <path class="cls-3" d="M500.92,432.35c-5.53,0-10.22-4.14-10.92-9.62l-24.58-194.45c-.37-2.9.43-5.78,2.23-8.11s4.4-3.81,7.3-4.18l27.78-3.51c.46-.06.92-.09,1.38-.09,5.53,0,10.22,4.14,10.92,9.62l24.58,194.45c.37,2.9-.43,5.78-2.23,8.11s-4.4,3.81-7.3,4.18l-27.78,3.51c-.46.06-.92.09-1.38.09Z"/>
      <path class="cls-12" d="M504.12,213.39c5.03,0,9.29,3.76,9.92,8.75l24.58,194.45c.33,2.64-.39,5.26-2.03,7.37-1.64,2.12-4,3.47-6.64,3.8l-27.78,3.51c-.42.05-.84.08-1.25.08-5.03,0-9.29-3.76-9.92-8.75l-24.58-194.45c-.33-2.64.39-5.26,2.03-7.37,1.64-2.12,4-3.47,6.64-3.8l27.78-3.51c.42-.05.84-.08,1.25-.08M504.12,211.39c-.5,0-1,.03-1.5.09l-27.78,3.51c-6.55.83-11.23,6.86-10.4,13.41l24.58,194.45c.76,6.04,5.96,10.5,11.91,10.5.5,0,1-.03,1.5-.09l27.78-3.51c6.55-.83,11.23-6.86,10.4-13.41l-24.58-194.45c-.76-6.04-5.96-10.5-11.91-10.5h0Z"/>
    </g>
    <path class="cls-2" d="M499.59,221v29c0,6.6-4.9,4.5-11.5,4.5l-11,3-11.5,169.5c0,1.74-.38,3.4-1.05,4.89.03.36.05.74.05,1.11v156c0,6.6-5.4,12-12,12h-24c-6.6,0-12-5.4-12-12v-150h-30v143c0,6.6-5.4,12-12,12h-23c-6.6,0-12-5.4-12-12v-155l-11.51-165h-8.49c-6.6,0-12-5.4-12-12v-29c0-6.6,5.4-12,12-12h168c6.6,0,12,5.4,12,12Z"/>
    <rect class="cls-6" x="323.59" y="551" width="63" height="43" rx="12" ry="12"/>
    <rect class="cls-6" x="407.59" y="558" width="63" height="43" rx="12" ry="12"/>
    <rect class="cls-6" x="330.59" y="369.5" width="144" height="39" rx="12" ry="12"/>
    <ellipse class="cls-6" cx="516.09" cy="416" rx="33" ry="29.5"/>
    <circle class="cls-6" cx="319.09" cy="224.5" r="36.5"/>
    <circle class="cls-6" cx="495.59" cy="225" r="37"/>
    <rect class="cls-6" x="365.59" y="256" width="78" height="44" rx="12" ry="12"/>
    <line class="cls-7" x1="355.59" y1="228" x2="377.59" y2="256"/>
    <line class="cls-7" x1="458.59" y1="229" x2="431.59" y2="256"/>
    <line class="cls-7" x1="431.59" y1="300" x2="471.59" y2="343"/>
    <line class="cls-7" x1="377.59" y1="300" x2="333.59" y2="343"/>
    <rect class="cls-2" x="340.09" y="363.5" width="16" height="54" rx="8" ry="8"/>
    <rect class="cls-2" x="447.09" y="362.5" width="16" height="54" rx="8" ry="8"/>
    <rect class="cls-2" x="363.09" y="363.5" width="16" height="54" rx="8" ry="8"/>
    <rect class="cls-2" x="425.09" y="363.5" width="16" height="54" rx="8" ry="8"/>
    <rect class="cls-6" x="255.15" y="299.72" width="58" height="42.65" rx="12" ry="12" transform="translate(150.61 -86.36) rotate(23.36)"/>
    <rect class="cls-6" x="475.5" y="303.22" width="58" height="42.65" rx="12" ry="12" transform="translate(-36.71 65.82) rotate(-7.2)"/>
    <line class="cls-8" x1="261.09" y1="300.5" x2="314.09" y2="323.5"/>
    <line class="cls-8" x1="258.09" y1="309.5" x2="311.09" y2="332.5"/>
    <line class="cls-8" x1="254.09" y1="318.5" x2="307.09" y2="341.5"/>
    <line class="cls-8" x1="474.75" y1="317.86" x2="532.07" y2="310.62"/>
    <line class="cls-8" x1="476.76" y1="327.13" x2="534.08" y2="319.89"/>
    <line class="cls-8" x1="477.91" y1="336.91" x2="535.23" y2="329.67"/>
    <rect class="cls-6" x="411.47" y="479.73" width="58" height="42.65" rx="12" ry="12"/>
    <line class="cls-8" x1="411.8" y1="490.7" x2="469.57" y2="490.7"/>
    <line class="cls-8" x1="412.63" y1="500.15" x2="470.4" y2="500.15"/>
    <line class="cls-8" x1="412.54" y1="510" x2="470.32" y2="510"/>
    <rect class="cls-6" x="332.47" y="475.79" width="58" height="42.65" rx="12" ry="12"/>
    <line class="cls-8" x1="332.8" y1="486.76" x2="390.57" y2="486.76"/>
    <line class="cls-8" x1="333.63" y1="496.21" x2="391.41" y2="496.21"/>
    <line class="cls-5" x1="228.59" y1="399" x2="228.59" y2="158"/>
    <ellipse class="cls-6" cx="246.09" cy="409" rx="33" ry="29.5"/>
    <line class="cls-8" x1="333.54" y1="506.06" x2="391.32" y2="506.06"/>
    <g id="Helmet">
      <g>
        <path class="cls-1" d="M224.09,170c-34.84,0-66.58-21.86-78.97-54.4-3.67-9.6-5.53-19.72-5.53-30.1,0-25.29,11.19-49.04,30.7-65.16C185.36,7.87,204.47,1,224.09,1c46.59,0,84.5,37.91,84.5,84.5s-37.91,84.5-84.5,84.5Z"/>
        <path d="M224.09,2c46.12,0,83.5,37.38,83.5,83.5s-37.38,83.5-83.5,83.5c-35.64,0-66.07-22.33-78.04-53.76-3.53-9.24-5.46-19.26-5.46-29.74,0-25.92,11.81-49.08,30.34-64.39,14.43-11.94,32.96-19.11,53.16-19.11M224.09,0c-19.85,0-39.18,6.95-54.43,19.57-19.74,16.31-31.07,40.34-31.07,65.93,0,10.5,1.88,20.74,5.59,30.45,6.1,16.01,16.77,29.7,30.86,39.59,14.41,10.11,31.37,15.46,49.04,15.46,47.14,0,85.5-38.36,85.5-85.5S271.23,0,224.09,0h0Z"/>
      </g>
      <path class="cls-4" d="M284.59,77.5c0,35.62-34.25,64.5-76.5,64.5-25.53,0-48.15-10.55-62.04-26.76-3.53-9.24-5.46-19.26-5.46-29.74,0-25.92,11.81-49.08,30.34-64.39,11-5.17,23.67-8.11,37.16-8.11,42.25,0,76.5,28.88,76.5,64.5Z"/>
      <line class="cls-5" x1="229.26" y1="37.76" x2="242.02" y2="44.08"/>
      <line class="cls-5" x1="214.4" y1="38.14" x2="248.09" y2="56"/>
      <line class="cls-5" x1="221.31" y1="49.36" x2="234.78" y2="56.5"/>
      <ellipse class="cls-6" cx="293.09" cy="97.5" rx="25.5" ry="20.5" transform="translate(140.33 365.96) rotate(-78.76)"/>
    </g>
  </g>
</svg>