<?xml version="1.0" encoding="UTF-8"?>
<svg id="Layer_2" data-name="Layer 2" xmlns="http://www.w3.org/2000/svg" viewBox="0 0 806.18 821.5">
  <defs>
    <style>
      .cls-1, .cls-2, .cls-3 {
        fill: #fff;
      }

      .cls-1, .cls-4 {
        fill-rule: evenodd;
      }

      .cls-2, .cls-5, .cls-6, .cls-7, .cls-8, .cls-9, .cls-10, .cls-11 {
        stroke-miterlimit: 10;
      }

      .cls-2, .cls-6, .cls-7, .cls-8, .cls-9 {
        stroke: #18181b;
      }

      .cls-2, .cls-6, .cls-9 {
        stroke-width: 2px;
      }

      .cls-5 {
        stroke: #fff;
      }

      .cls-5, .cls-7, .cls-8, .cls-11 {
        stroke-width: 3px;
      }

      .cls-5, .cls-7, .cls-9, .cls-11 {
        fill: none;
      }

      .cls-12, .cls-10 {
        fill: #edd62e;
      }

      .cls-6 {
        fill: #382f18;
      }

      .cls-8 {
        fill: #d3c398;
      }

      .cls-13 {
        fill: #eab308;
      }

      .cls-10 {
        stroke-width: 4px;
      }

      .cls-10, .cls-11 {
        stroke: #000;
      }

      .cls-14 {
        fill: #18181b;
      }
    </style>
  </defs>
  <g id="Sun">
    <line class="cls-10" x1="55.13" y1="685" x2="54.85" y2="684.49"/>
    <line class="cls-10" x1="160.13" y1="587" x2="159.65" y2="586.73"/>
    <line class="cls-10" x1="159.65" y1="586.73" x2="159.63" y2="586.5"/>
    <line class="cls-10" x1="648.32" y1="578.13" x2="648.83" y2="577.85"/>
    <line class="cls-10" x1="746.32" y1="683.13" x2="746.59" y2="682.65"/>
    <line class="cls-10" x1="746.59" y1="682.65" x2="746.82" y2="682.63"/>
    <line class="cls-10" x1="648.83" y1="577.85" x2="648.82" y2="577.63"/>
    <g>
      <path class="cls-12" d="M784.97,744.16l-1.02-.32.69-.42c.11.25.22.5.33.74Z"/>
      <path d="M784.64,743.42l-.69.42,1.02.32c-.11-.24-.22-.49-.33-.74h0Z"/>
    </g>
    <g>
      <path class="cls-13" d="M2.31,819.5c5.44-36.62,17.73-72.01,36.53-105.24,18.71-33.06,43.45-63.26,73.52-89.76,30.05-26.48,64.64-48.56,102.82-65.65,39.09-17.5,81.04-29.33,124.68-35.16,10.91-1.47,22.11-2.56,33.29-3.26,2.62-.17,5.47-.33,8.73-.47h.21c1.52-.08,3.04-.14,4.57-.19,5.33-.19,10.86-.28,16.44-.28,3.58,0,7.21.04,10.78.12.88.02,1.76.04,2.66.07,15.4.42,30.83,1.6,45.89,3.5.65.07,1.28.15,1.9.24,70.09,9.06,136.41,33.89,191.8,71.79,25,17.09,47.61,36.72,67.19,58.33,43.78,48.31,71.61,105.65,80.57,165.96H2.31Z"/>
      <path d="M403.09,521.5c3.57,0,7.18.04,10.73.12.88.02,1.75.04,2.66.07,15.32.42,30.69,1.59,45.68,3.48h.03s.03,0,.03,0c.6.07,1.21.14,1.85.23,69.76,9.02,135.77,33.73,190.91,71.46,24.87,17,47.36,36.52,66.83,58.02,42.96,47.41,70.47,103.54,79.73,162.61H4.64c5.57-35.56,17.65-69.94,35.94-102.26,18.6-32.87,43.2-62.89,73.11-89.25,29.9-26.34,64.32-48.32,102.31-65.32,38.92-17.42,80.68-29.19,124.13-35,10.85-1.46,22-2.55,33.16-3.24,2.59-.17,5.43-.32,8.68-.47,1.58-.07,3.17-.14,4.77-.19,5.3-.18,10.81-.28,16.36-.28M403.09,517.5c-5.53,0-11.03.09-16.5.28-1.61.05-3.21.12-4.81.19-2.93.13-5.85.28-8.76.47-11.28.7-22.43,1.79-33.43,3.27C161.33,545.53,21.58,668.06,0,821.5h806.18c-8.89-63.27-37.89-121.29-81.4-169.3-19.7-21.75-42.39-41.45-67.54-58.64-54.44-37.25-120.42-62.78-192.65-72.12-.64-.09-1.29-.17-1.93-.24-15.1-1.9-30.48-3.08-46.07-3.51-.9-.03-1.79-.05-2.68-.07-3.6-.08-7.2-.12-10.82-.12h0Z"/>
    </g>
  </g>
  <g id="Astronaught">
    <g>
      <path class="cls-3" d="M259.59,426.01c-1.49,0-2.95-.3-4.33-.9l-25.71-11.1c-5.57-2.41-8.14-8.89-5.74-14.46l77.72-179.93c1.74-4.03,5.72-6.63,10.13-6.63,1.49,0,2.95.3,4.33.9l25.71,11.1c5.57,2.41,8.14,8.89,5.74,14.46l-77.72,179.93c-1.74,4.03-5.72,6.63-10.13,6.63h0Z"/>
      <path class="cls-14" d="M311.68,213.99c1.36,0,2.68.27,3.93.81l25.7,11.1c5.06,2.19,7.4,8.08,5.21,13.15l-77.72,179.93c-1.58,3.66-5.2,6.03-9.21,6.03-1.36,0-2.68-.27-3.93-.81l-25.7-11.1c-2.44-1.05-4.33-3.01-5.32-5.5-.99-2.49-.95-5.21.1-7.65l77.72-179.93c1.58-3.66,5.2-6.03,9.21-6.03M311.68,211.99c-4.65,0-9.1,2.71-11.05,7.24l-77.72,179.93c-2.62,6.06.2,13.16,6.26,15.77l25.7,11.1c1.54.66,3.14.98,4.72.98,4.65,0,9.1-2.72,11.05-7.24l77.72-179.93c2.62-6.06-.2-13.16-6.26-15.77l-25.7-11.1c-1.54-.66-3.14-.98-4.72-.98h0Z"/>
    </g>
    <g>
      <path class="cls-3" d="M501.46,432.35c-5.53,0-10.22-4.14-10.92-9.62l-24.58-194.45c-.37-2.9.43-5.78,2.23-8.11s4.4-3.81,7.3-4.18l27.78-3.51c.46-.06.92-.09,1.38-.09,5.53,0,10.22,4.14,10.92,9.62l24.58,194.45c.37,2.9-.43,5.78-2.23,8.11s-4.4,3.81-7.3,4.18l-27.78,3.51c-.46.06-.92.09-1.38.09Z"/>
      <path class="cls-14" d="M504.66,213.39c5.03,0,9.29,3.76,9.92,8.75l24.58,194.45c.33,2.64-.39,5.26-2.03,7.37-1.64,2.12-4,3.47-6.64,3.8l-27.78,3.51c-.42.05-.84.08-1.25.08-5.03,0-9.29-3.76-9.92-8.75l-24.58-194.45c-.33-2.64.39-5.26,2.03-7.37,1.64-2.12,4-3.47,6.64-3.8l27.78-3.51c.42-.05.84-.08,1.25-.08M504.66,211.39c-.5,0-1,.03-1.5.09l-27.78,3.51c-6.55.83-11.23,6.86-10.4,13.41l24.58,194.45c.76,6.04,5.96,10.5,11.91,10.5.5,0,1-.03,1.5-.09l27.78-3.51c6.55-.83,11.23-6.86,10.4-13.41l-24.58-194.45c-.76-6.04-5.96-10.5-11.91-10.5h0Z"/>
    </g>
    <path class="cls-2" d="M500.13,221v29c0,6.6-4.9,4.5-11.5,4.5l-11,3-11.5,169.5c0,1.74-.38,3.4-1.05,4.89.03.36.05.74.05,1.11v156c0,6.6-5.4,12-12,12h-24c-6.6,0-12-5.4-12-12v-150h-30v143c0,6.6-5.4,12-12,12h-23c-6.6,0-12-5.4-12-12v-155l-11.51-165h-8.49c-6.6,0-12-5.4-12-12v-29c0-6.6,5.4-12,12-12h168c6.6,0,12,5.4,12,12Z"/>
    <rect class="cls-8" x="324.13" y="551" width="63" height="43" rx="12" ry="12"/>
    <rect class="cls-8" x="408.13" y="558" width="63" height="43" rx="12" ry="12"/>
    <rect class="cls-8" x="331.13" y="369.5" width="144" height="39" rx="12" ry="12"/>
    <ellipse class="cls-8" cx="516.63" cy="416" rx="33" ry="29.5"/>
    <circle class="cls-8" cx="319.63" cy="224.5" r="36.5"/>
    <circle class="cls-8" cx="496.13" cy="225" r="37"/>
    <rect class="cls-8" x="366.13" y="256" width="78" height="44" rx="12" ry="12"/>
    <line class="cls-7" x1="356.13" y1="228" x2="378.13" y2="256"/>
    <line class="cls-7" x1="459.13" y1="229" x2="432.13" y2="256"/>
    <line class="cls-7" x1="432.13" y1="300" x2="472.13" y2="343"/>
    <line class="cls-7" x1="378.13" y1="300" x2="334.13" y2="343"/>
    <rect class="cls-6" x="340.63" y="363.5" width="16" height="54" rx="8" ry="8"/>
    <rect class="cls-6" x="448.63" y="363.5" width="16" height="54" rx="8" ry="8"/>
    <rect class="cls-6" x="363.63" y="363.5" width="16" height="54" rx="8" ry="8"/>
    <rect class="cls-6" x="425.63" y="363.5" width="16" height="54" rx="8" ry="8"/>
    <rect class="cls-8" x="255.69" y="299.72" width="58" height="42.65" rx="12" ry="12" transform="translate(150.65 -86.57) rotate(23.36)"/>
    <rect class="cls-8" x="476.04" y="303.22" width="58" height="42.65" rx="12" ry="12" transform="translate(-36.71 65.89) rotate(-7.2)"/>
    <line class="cls-9" x1="261.63" y1="300.5" x2="314.63" y2="323.5"/>
    <line class="cls-9" x1="258.63" y1="309.5" x2="311.63" y2="332.5"/>
    <line class="cls-9" x1="254.63" y1="318.5" x2="307.63" y2="341.5"/>
    <line class="cls-9" x1="475.29" y1="317.86" x2="532.61" y2="310.62"/>
    <line class="cls-9" x1="477.3" y1="327.13" x2="534.62" y2="319.89"/>
    <line class="cls-9" x1="478.45" y1="336.91" x2="535.77" y2="329.67"/>
    <rect class="cls-8" x="412.01" y="479.73" width="58" height="42.65" rx="12" ry="12"/>
    <line class="cls-9" x1="412.34" y1="490.7" x2="470.11" y2="490.7"/>
    <line class="cls-9" x1="413.17" y1="500.15" x2="470.94" y2="500.15"/>
    <line class="cls-9" x1="413.08" y1="510" x2="470.86" y2="510"/>
    <rect class="cls-8" x="333.02" y="475.79" width="58" height="42.65" rx="12" ry="12"/>
    <line class="cls-9" x1="333.34" y1="486.76" x2="391.12" y2="486.76"/>
    <line class="cls-9" x1="334.17" y1="496.21" x2="391.95" y2="496.21"/>
    <line class="cls-11" x1="229.13" y1="399" x2="229.13" y2="158"/>
    <ellipse class="cls-8" cx="246.63" cy="409" rx="33" ry="29.5"/>
    <line class="cls-9" x1="334.09" y1="506.06" x2="391.86" y2="506.06"/>
    <g id="Helmet">
      <g>
        <path class="cls-1" d="M224.63,170c-34.84,0-66.58-21.86-78.97-54.4-3.67-9.6-5.53-19.72-5.53-30.1,0-25.29,11.19-49.04,30.7-65.16C185.91,7.87,205.01,1,224.63,1c46.59,0,84.5,37.91,84.5,84.5s-37.91,84.5-84.5,84.5Z"/>
        <path d="M224.63,2c46.12,0,83.5,37.38,83.5,83.5s-37.38,83.5-83.5,83.5c-35.64,0-66.07-22.33-78.04-53.76-3.53-9.24-5.46-19.26-5.46-29.74,0-25.92,11.81-49.08,30.34-64.39,14.43-11.94,32.96-19.11,53.16-19.11M224.63,0c-19.85,0-39.18,6.95-54.43,19.57-19.74,16.31-31.07,40.34-31.07,65.93,0,10.5,1.88,20.74,5.59,30.45,6.1,16.01,16.77,29.7,30.86,39.59,14.41,10.11,31.37,15.46,49.04,15.46,47.14,0,85.5-38.36,85.5-85.5S271.78,0,224.63,0h0Z"/>
      </g>
      <path class="cls-4" d="M285.13,77.5c0,35.62-34.25,64.5-76.5,64.5-25.53,0-48.15-10.55-62.04-26.76-3.53-9.24-5.46-19.26-5.46-29.74,0-25.92,11.81-49.08,30.34-64.39,11-5.17,23.67-8.11,37.16-8.11,42.25,0,76.5,28.88,76.5,64.5Z"/>
      <line class="cls-5" x1="229.81" y1="37.76" x2="242.57" y2="44.08"/>
      <line class="cls-5" x1="214.94" y1="38.14" x2="248.63" y2="56"/>
      <line class="cls-5" x1="221.85" y1="49.36" x2="235.32" y2="56.5"/>
      <ellipse class="cls-8" cx="293.63" cy="97.5" rx="25.5" ry="20.5" transform="translate(140.77 366.5) rotate(-78.76)"/>
    </g>
  </g>
</svg>